<?xml version="1.0" encoding="iso-8859-1"?>
<!-- Generator: Adobe Illustrator 19.0.0, SVG Export Plug-In . SVG Version: 6.00 Build 0)  -->
<svg version="1.1" id="Capa_1" xmlns="http://www.w3.org/2000/svg" xmlns:xlink="http://www.w3.org/1999/xlink" x="0px" y="0px"
	 viewBox="0 0 512 512" style="enable-background:new 0 0 512 512;" xml:space="preserve">
<path style="fill:#DDDDDD;" d="M391.103,160.823c-0.541-6.492-0.713-13.006-1.1-19.511C385.63,67.064,331.518,8.393,255.998,8.393
	l0,0c-75.52,0-129.628,58.67-134.01,132.919c-0.382,6.505-0.558,13.018-1.1,19.511l-24.366,309.21h33.574
	c0,18.541,15.033,33.574,33.574,33.574s33.574-15.033,33.574-33.574h25.18c0,18.541,15.033,33.574,33.574,33.574
	s33.574-15.033,33.574-33.574h25.18c0,18.541,15.033,33.574,33.574,33.574s33.574-15.033,33.574-33.574h33.574L391.103,160.823z"/>
<path d="M348.326,512c-20.266,0-37.225-14.441-41.124-33.574h-10.081C293.223,497.559,276.264,512,255.998,512
	s-37.225-14.441-41.124-33.574h-10.076C200.895,497.559,183.94,512,163.674,512s-37.225-14.441-41.124-33.574H96.522
	c-2.342,0-4.574-0.974-6.165-2.698c-1.586-1.716-2.388-4.025-2.203-6.358l24.366-309.21c0.34-4.096,0.529-8.163,0.722-12.229
	c0.113-2.371,0.222-4.742,0.361-7.113C118.425,59.22,178.308,0,255.998,0c77.698,0,137.577,59.224,142.382,140.817
	c0.147,2.438,0.264,4.881,0.382,7.327c0.189,3.999,0.378,7.995,0.709,11.982c0,0.013,0,0.025,0.004,0.038l24.37,309.21
	c0.185,2.333-0.613,4.637-2.203,6.358c-1.595,1.721-3.832,2.694-6.169,2.694h-26.024C385.551,497.559,368.592,512,348.326,512z
	 M289.572,461.639h25.18c4.633,0,8.393,3.76,8.393,8.393c0,13.887,11.293,25.18,25.18,25.18c13.887,0,25.18-11.293,25.18-25.18
	c0-4.633,3.76-8.393,8.393-8.393h24.492l-23.653-300.137c-0.348-4.184-0.55-8.372-0.751-12.565
	c-0.109-2.375-0.227-4.751-0.365-7.126c-4.264-72.448-57.101-125.025-125.625-125.025c-68.52,0-121.357,52.577-125.633,125.02
	c-0.134,2.304-0.243,4.612-0.353,6.916c-0.201,4.272-0.407,8.536-0.76,12.796L105.6,461.639h24.496c4.633,0,8.393,3.76,8.393,8.393
	c0,13.887,11.293,25.18,25.18,25.18s25.18-11.293,25.18-25.18c0-4.633,3.76-8.393,8.393-8.393h25.18c4.633,0,8.393,3.76,8.393,8.393
	c0,13.887,11.293,25.18,25.18,25.18c13.887,0,25.18-11.293,25.18-25.18C281.178,465.4,284.934,461.639,289.572,461.639z"/>
<path d="M172.47,94.766c-1.616,0-3.248-0.466-4.692-1.439c-3.84-2.594-4.851-7.81-2.258-11.654
	c20.35-30.116,54.171-48.099,90.477-48.099c4.633,0,8.393,3.76,8.393,8.393s-3.76,8.393-8.393,8.393
	c-30.72,0-59.342,15.217-76.565,40.712C177.813,93.469,175.165,94.766,172.47,94.766z"/>
<path d="M314.752,335.738H197.244c-4.633,0-8.393-3.76-8.393-8.393c0-4.633,3.76-8.393,8.393-8.393h117.508
	c4.633,0,8.393,3.76,8.393,8.393C323.145,331.977,319.385,335.738,314.752,335.738z"/>
<path d="M214.031,352.525c-4.633,0-8.393-3.76-8.393-8.393v-33.574c0-4.633,3.76-8.393,8.393-8.393s8.393,3.76,8.393,8.393v33.574
	C222.424,348.764,218.664,352.525,214.031,352.525z"/>
<path d="M255.998,352.525c-4.633,0-8.393-3.76-8.393-8.393v-33.574c0-4.633,3.76-8.393,8.393-8.393s8.393,3.76,8.393,8.393v33.574
	C264.391,348.764,260.631,352.525,255.998,352.525z"/>
<path d="M297.965,352.525c-4.633,0-8.393-3.76-8.393-8.393v-33.574c0-4.633,3.76-8.393,8.393-8.393c4.633,0,8.393,3.76,8.393,8.393
	v33.574C306.358,348.764,302.598,352.525,297.965,352.525z"/>
<path d="M219.277,215.082c-2.149,0-4.297-0.818-5.934-2.459l-31.475-31.475c-3.278-3.278-3.278-8.591,0-11.868
	c3.273-3.278,8.595-3.278,11.868,0l31.475,31.475c3.278,3.278,3.278,8.591,0,11.868
	C223.574,214.264,221.421,215.082,219.277,215.082z"/>
<path d="M187.801,215.082c-2.149,0-4.297-0.818-5.934-2.459c-3.278-3.278-3.278-8.591,0-11.868l31.475-31.475
	c3.273-3.278,8.595-3.278,11.868,0c3.278,3.278,3.278,8.591,0,11.868l-31.475,31.475
	C192.099,214.264,189.946,215.082,187.801,215.082z"/>
<path d="M319.998,215.082c-2.149,0-4.293-0.818-5.934-2.459l-31.475-31.475c-3.278-3.278-3.278-8.591,0-11.868
	c3.278-3.278,8.591-3.278,11.868,0l31.475,31.475c3.278,3.278,3.278,8.591,0,11.868
	C324.291,214.264,322.142,215.082,319.998,215.082z"/>
<path d="M288.522,215.082c-2.149,0-4.293-0.818-5.934-2.459c-3.278-3.278-3.278-8.591,0-11.868l31.475-31.475
	c3.278-3.278,8.591-3.278,11.868,0c3.278,3.278,3.278,8.591,0,11.868l-31.475,31.475
	C292.816,214.264,290.667,215.082,288.522,215.082z"/>
<g>
</g>
<g>
</g>
<g>
</g>
<g>
</g>
<g>
</g>
<g>
</g>
<g>
</g>
<g>
</g>
<g>
</g>
<g>
</g>
<g>
</g>
<g>
</g>
<g>
</g>
<g>
</g>
<g>
</g>
</svg>
